<?xml version="1.0" encoding="utf-8"?>
<!-- Generator: Adobe Illustrator 21.1.0, SVG Export Plug-In . SVG Version: 6.00 Build 0)  -->
<svg version="1.1" id="Layer_1" xmlns="http://www.w3.org/2000/svg" xmlns:xlink="http://www.w3.org/1999/xlink" x="0px" y="0px"
	 viewBox="0 0 1152 248" style="enable-background:new 0 0 1152 248;" xml:space="preserve">
<style type="text/css">
	.st0{fill:none;stroke:#FDD100;stroke-width:16;stroke-miterlimit:10;}
	.st1{fill:none;stroke:#FDD100;stroke-width:3;stroke-miterlimit:10;}
	.st2{fill:#FDD100;}
	.st3{font-family:'OCRAStd';}
	.st4{font-size:90.8195px;}
</style>
<circle class="st0" cx="121.1" cy="121.1" r="111"/>
<path class="st1" d="M122.7,28.9c50.8,0,91.9,41.2,91.9,91.9c0,12.1-2.3,23.6-6.6,34.2c-0.7,1.8-1.5,3.7-2.4,5.4"/>
<path class="st1" d="M122.7,39.8c44.8,0,81.1,36.3,81.1,81.1c0,10.6-2,20.7-5.7,29.9c-0.7,1.8-1.5,3.5-2.3,5.2"/>
<path class="st2" d="M121.1,86C101.7,86,86,101.7,86,121.1s15.7,35.1,35.1,35.1c19.4,0,35.1-15.7,35.1-35.1S140.5,86,121.1,86z
	 M121.1,131.2c-5.6,0-10.1-4.5-10.1-10.1c0-5.6,4.5-10.1,10.1-10.1s10.1,4.5,10.1,10.1C131.2,126.7,126.7,131.2,121.1,131.2z"/>
<text transform="matrix(1 0 0 1 294.8552 156.1989)" class="st2 st3 st4">CRASH RECORDS</text>
</svg>
